# xmcd
#
# Track frame offsets:
# 150
# 14360
# 30413
# 46723
# 62188
# 79205
# 97173
# 114853
# 128391
# 143498
# 161693
# 176802
# 189978
#
# Disc length: 2740 seconds
#
#
# Revision: 0
# Processed by: cddbd v1.5.1PL0 Copyright (c) Steve Scherf et al.
# Submitted via: FreeRIP 2.942 
#
DISCID=9d0ab20d
DTITLE=Trio Sabiá - Pra Sacolejar
DYEAR=1900
DGENRE=Country
TTITLE0=Se Tu Quiser
TTITLE1=Tá Faltando Alguém
TTITLE2=Amor não Tem idade
TTITLE3=Levei a sério
TTITLE4=Pisa no chão de vagar
TTITLE5=Seu Aconchego
TTITLE6=Xodô e Chamego
TTITLE7=Trovão
TTITLE8=Pra sacolejar
TTITLE9=Tá roendo coração
TTITLE10=Tangendo a dor
TTITLE11=Mexe aí pra gente ver
TTITLE12=Amor eterno
EXTD=
EXTT0=
EXTT1=
EXTT2=
EXTT3=
EXTT4=
EXTT5=
EXTT6=
EXTT7=
EXTT8=
EXTT9=
EXTT10=
EXTT11=
EXTT12=
PLAYORDER=
